<svg width="63" height="63" viewBox="0 0 63 63" fill="none" xmlns="http://www.w3.org/2000/svg">
<g id="account_circle_black_24dp">
<g id="Group 26">
<g id="Group 25">
<path id="Path 43" d="M31.5 5.25C26.3083 5.25 21.2331 6.78954 16.9163 9.67392C12.5995 12.5583 9.23497 16.658 7.24817 21.4546C5.26137 26.2511 4.74154 31.5291 5.7544 36.6211C6.76726 41.7131 9.26733 46.3904 12.9385 50.0616C16.6096 53.7327 21.2869 56.2327 26.3789 57.2456C31.4709 58.2585 36.7489 57.7386 41.5455 55.7518C46.342 53.765 50.4417 50.4005 53.3261 46.0837C56.2105 41.7669 57.75 36.6918 57.75 31.5C57.7474 24.5389 54.9809 17.8636 50.0586 12.9414C45.1364 8.01912 38.4611 5.25265 31.5 5.25ZM19.294 48.563C22.8492 46.0028 27.1194 44.6252 31.5005 44.6252C35.8816 44.6252 40.1518 46.0028 43.707 48.563C40.1518 51.1232 35.8816 52.5008 31.5005 52.5008C27.1194 52.5008 22.8492 51.1232 19.294 48.563ZM47.618 44.94C43.0192 41.3344 37.3443 39.3749 31.5005 39.3749C25.6568 39.3749 19.9818 41.3344 15.383 44.94C12.823 41.8751 11.19 38.1437 10.6755 34.1836C10.161 30.2235 10.7863 26.1988 12.4781 22.5814C14.1699 18.9641 16.858 15.9041 20.2273 13.7604C23.5965 11.6166 27.5071 10.478 31.5005 10.478C35.4939 10.478 39.4045 11.6166 42.7738 13.7604C46.143 15.9041 48.8311 18.9641 50.5229 22.5814C52.2147 26.1988 52.84 30.2235 52.3255 34.1836C51.811 38.1437 50.178 41.8751 47.618 44.94Z" fill="#2196F3"/>
<path id="Path 44" d="M31.501 15.75C29.6838 15.75 27.9074 16.2889 26.3964 17.2985C24.8855 18.308 23.7078 19.743 23.0124 21.4219C22.317 23.1008 22.135 24.9482 22.4895 26.7305C22.8441 28.5128 23.7191 30.1499 25.0041 31.4349C26.2891 32.7199 27.9262 33.5949 29.7085 33.9495C31.4908 34.304 33.3382 34.122 35.0171 33.4266C36.696 32.7312 38.1309 31.5535 39.1405 30.0426C40.1501 28.5316 40.689 26.7552 40.689 24.938C40.6858 22.5022 39.7168 20.167 37.9944 18.4446C36.272 16.7222 33.9368 15.7532 31.501 15.75ZM31.501 28.875C30.7221 28.875 29.9607 28.644 29.3131 28.2113C28.6654 27.7785 28.1607 27.1634 27.8627 26.4438C27.5646 25.7241 27.4867 24.9323 27.6387 24.1684C27.7908 23.4044 28.1659 22.7028 28.7168 22.1521C29.2676 21.6014 29.9694 21.2264 30.7333 21.0745C31.4973 20.9227 32.2891 21.0008 33.0087 21.299C33.7282 21.5973 34.3432 22.1022 34.7758 22.7499C35.2084 23.3976 35.4392 24.1591 35.439 24.938C35.4396 25.4553 35.3382 25.9676 35.1406 26.4456C34.9429 26.9237 34.6528 27.358 34.287 27.7237C33.9212 28.0894 33.4868 28.3794 33.0087 28.5769C32.5306 28.7745 32.0183 28.8758 31.501 28.875Z" fill="#2196F3"/>
</g>
</g>
</g>
</svg>
