<svg width="35" height="35" viewBox="0 0 35 35" fill="none" xmlns="http://www.w3.org/2000/svg">
<g id="contacts_black_24dp">
<path id="Path 47" d="M29.011 5.833H5.98901C5.22125 5.84039 4.48761 6.15133 3.94836 6.69789C3.40911 7.24445 3.10807 7.9822 3.11101 8.75V26.25C3.10807 27.0178 3.40911 27.7556 3.94836 28.3021C4.48761 28.8487 5.22125 29.1596 5.98901 29.167H29.011C29.7788 29.1596 30.5124 28.8487 31.0517 28.3021C31.5909 27.7556 31.892 27.0178 31.889 26.25V8.75C31.892 7.9822 31.5909 7.24445 31.0517 6.69789C30.5124 6.15133 29.7788 5.84039 29.011 5.833ZM29.011 26.25H5.98901V8.75H29.011V26.25ZM5.98901 0H29.011V2.917H5.98901V0ZM5.98901 32.083H29.011V35H5.98901V32.083ZM17.5 17.5C18.223 17.5091 18.9324 17.3031 19.538 16.908C20.1436 16.513 20.6181 15.9468 20.9011 15.2814C21.1841 14.6161 21.2629 13.8816 21.1275 13.1713C20.992 12.4611 20.6485 11.8071 20.1404 11.2926C19.6324 10.7781 18.9829 10.4262 18.2744 10.2818C17.5659 10.1373 16.8305 10.2068 16.1616 10.4814C15.4927 10.7559 14.9205 11.2232 14.5178 11.8237C14.1151 12.4242 13.9001 13.1309 13.9 13.854C13.897 14.3298 13.9877 14.8015 14.167 15.2422C14.3463 15.6829 14.6106 16.084 14.9449 16.4226C15.2792 16.7612 15.6769 17.0306 16.1153 17.2154C16.5537 17.4003 17.0242 17.497 17.5 17.5ZM17.5 12.4C17.7892 12.3962 18.0729 12.4785 18.3151 12.6364C18.5574 12.7943 18.7472 13.0207 18.8605 13.2868C18.9738 13.5528 19.0054 13.8466 18.9513 14.1306C18.8972 14.4147 18.7598 14.6762 18.5567 14.8821C18.3536 15.0879 18.0938 15.2286 17.8105 15.2864C17.5272 15.3443 17.2331 15.3165 16.9655 15.2067C16.698 15.097 16.4692 14.9101 16.3081 14.67C16.147 14.4298 16.061 14.1472 16.061 13.858C16.0597 13.4742 16.2103 13.1054 16.4799 12.8323C16.7495 12.5591 17.1162 12.4037 17.5 12.4ZM24.694 23.323C24.694 20.275 19.931 18.963 17.5 18.963C15.069 18.963 10.306 20.275 10.306 23.323V24.796H24.694V23.323ZM12.911 22.6C14.2561 21.6511 15.8619 21.1418 17.508 21.1418C19.1541 21.1418 20.7599 21.6511 22.105 22.6H12.911Z" fill="#2196F3"/>
</g>
</svg>
