<svg width="48" height="24" viewBox="0 0 48 24" fill="none" xmlns="http://www.w3.org/2000/svg">
<g id="groups_black_24dp">
<g id="Group 2">
<path id="Path 1" d="M8.53699 13.8601C9.30162 13.8601 10.0491 13.6333 10.6848 13.2085C11.3206 12.7837 11.8161 12.1799 12.1087 11.4735C12.4013 10.7671 12.4779 9.98977 12.3287 9.23984C12.1795 8.48991 11.8113 7.80106 11.2707 7.26039C10.73 6.71972 10.0411 6.35152 9.29121 6.20235C8.54128 6.05318 7.76396 6.12973 7.05754 6.42234C6.35112 6.71495 5.74733 7.21047 5.32253 7.84623C4.89773 8.48199 4.67099 9.22944 4.67099 9.99406C4.6739 11.0185 5.08214 12.0001 5.80652 12.7245C6.53091 13.4489 7.51256 13.8572 8.53699 13.8601ZM10.721 15.9861C9.99943 15.8626 9.26902 15.7981 8.53699 15.7931C6.68793 15.793 4.85877 16.1746 3.16399 16.9141C2.46369 17.2135 1.86677 17.712 1.44738 18.3477C1.02799 18.9835 0.804615 19.7284 0.804993 20.4901V23.5251H9.50499V20.4131C9.50664 18.8551 9.9266 17.3262 10.721 15.9861ZM39.463 13.8601C40.2276 13.8601 40.9751 13.6333 41.6108 13.2085C42.2466 12.7837 42.7421 12.1799 43.0347 11.4735C43.3273 10.7671 43.4039 9.98977 43.2547 9.23984C43.1055 8.48991 42.7373 7.80106 42.1967 7.26039C41.656 6.71972 40.9671 6.35152 40.2172 6.20235C39.4673 6.05318 38.69 6.12973 37.9835 6.42234C37.2771 6.71495 36.6733 7.21047 36.2485 7.84623C35.8237 8.48199 35.597 9.22944 35.597 9.99406C35.5999 11.0185 36.0081 12.0001 36.7325 12.7245C37.4569 13.4489 38.4386 13.8572 39.463 13.8601ZM47.195 20.4901C47.1955 19.7286 46.9722 18.9837 46.553 18.3479C46.1338 17.7122 45.5371 17.2136 44.837 16.9141C42.4645 15.8655 39.8347 15.5426 37.279 15.9861C38.0739 17.3257 38.4946 18.8543 38.497 20.4121V23.5241H47.197L47.195 20.4901ZM32.195 15.1171C29.6135 13.9696 26.82 13.3769 23.995 13.3771C21.171 13.3864 18.3794 13.9787 15.795 15.1171C14.7762 15.5768 13.9128 16.3223 13.3093 17.263C12.7058 18.2038 12.3882 19.2994 12.395 20.4171V23.5291H35.597V20.4131C35.6029 19.2959 35.2846 18.2009 34.6808 17.2609C34.077 16.3209 33.2135 15.5762 32.195 15.1171ZM16.405 19.6591C16.579 19.2141 16.656 18.9051 18.164 18.3251C21.9218 16.8817 26.0812 16.8817 29.839 18.3251C31.327 18.9051 31.405 19.2141 31.598 19.6591H16.405ZM24.005 4.19606C24.387 4.19705 24.7602 4.31123 25.0774 4.52419C25.3946 4.73715 25.6416 5.03932 25.7872 5.39256C25.9328 5.7458 25.9704 6.13425 25.8953 6.50886C25.8202 6.88347 25.6359 7.22743 25.3654 7.4973C25.095 7.76718 24.7506 7.95086 24.3759 8.02516C24.0011 8.09945 23.6127 8.06102 23.2598 7.91473C22.9069 7.76843 22.6052 7.52082 22.3929 7.20319C22.1806 6.88555 22.0672 6.51212 22.067 6.13006C22.0686 5.61789 22.2727 5.12714 22.6349 4.76497C22.9971 4.40281 23.4878 4.19864 24 4.19706M24 0.331062C22.8529 0.331062 21.7315 0.671226 20.7777 1.30854C19.8239 1.94585 19.0805 2.85169 18.6415 3.9115C18.2025 4.97131 18.0876 6.1375 18.3114 7.26259C18.5352 8.38768 19.0876 9.42114 19.8988 10.2323C20.7099 11.0434 21.7434 11.5958 22.8685 11.8196C23.9936 12.0434 25.1597 11.9286 26.2196 11.4896C27.2794 11.0506 28.1852 10.3072 28.8225 9.35337C29.4598 8.39956 29.8 7.27819 29.8 6.13106C29.8012 5.36906 29.652 4.61432 29.3609 3.9101C29.0699 3.20587 28.6427 2.56602 28.1039 2.0272C27.565 1.48838 26.9252 1.0612 26.221 0.770147C25.5167 0.479089 24.762 0.329877 24 0.331062Z" fill="#2196F3"/>
</g>
</g>
</svg>
