<svg width="63" height="63" viewBox="0 0 63 63" fill="none" xmlns="http://www.w3.org/2000/svg">
<g id="Dollar Top">
<g id="Rectangle 27">
<path id="Vector" d="M53 0H10C4.47715 0 0 4.47715 0 10V53C0 58.5228 4.47715 63 10 63H53C58.5228 63 63 58.5228 63 53V10C63 4.47715 58.5228 0 53 0Z" fill="#8905AF"/>
<path id="Vector_2" d="M53 0.5H10C4.75329 0.5 0.5 4.75329 0.5 10V53C0.5 58.2467 4.75329 62.5 10 62.5H53C58.2467 62.5 62.5 58.2467 62.5 53V10C62.5 4.75329 58.2467 0.5 53 0.5Z" stroke="#707070"/>
</g>
<g id="monetization_on_black_24dp">
<path id="Path 30" d="M31.5 12.108C27.7338 12.1078 24.0522 13.2244 20.9206 15.3167C17.789 17.4089 15.3482 20.3828 13.9068 23.8623C12.4654 27.3417 12.0882 31.1704 12.8228 34.8643C13.5574 38.5581 15.3709 41.9512 18.0339 44.6144C20.697 47.2775 24.0899 49.0912 27.7837 49.826C31.4776 50.5609 35.3063 50.1838 38.7859 48.7426C42.2654 47.3014 45.2394 44.8607 47.3318 41.7293C49.4242 38.5978 50.541 34.9162 50.541 31.15C50.5392 26.1005 48.5325 21.2583 44.9621 17.6877C41.3916 14.117 36.5495 12.1101 31.5 12.108ZM31.5 46.383C28.4872 46.383 25.5421 45.4896 23.037 43.8158C20.532 42.142 18.5795 39.7629 17.4266 36.9794C16.2736 34.196 15.972 31.1331 16.5597 28.1782C17.1475 25.2233 18.5983 22.509 20.7287 20.3786C22.859 18.2483 25.5733 16.7975 28.5282 16.2097C31.4831 15.6219 34.546 15.9236 37.3294 17.0765C40.1129 18.2295 42.492 20.1819 44.1658 22.687C45.8396 25.1921 46.733 28.1372 46.733 31.15C46.7275 35.1883 45.1208 39.0597 42.2652 41.9152C39.4097 44.7708 35.5384 46.3774 31.5 46.383ZM32.09 29.512C28.72 28.655 27.634 27.722 27.634 26.332C27.634 24.732 29.134 23.609 31.634 23.609C34.262 23.609 35.252 24.866 35.328 26.732H38.584C38.5529 25.3913 38.0666 24.101 37.205 23.0733C36.3434 22.0455 35.1578 21.3415 33.843 21.077V17.821H29.405V21.039C26.53 21.648 24.226 23.514 24.226 26.39C24.226 29.798 27.063 31.512 31.195 32.502C34.908 33.378 35.651 34.692 35.651 36.063C35.651 37.072 34.908 38.71 31.651 38.71C28.604 38.71 27.405 37.339 27.233 35.587H23.958C24.148 38.824 26.548 40.652 29.404 41.242V44.479H33.858V41.299C36.752 40.747 39.037 39.09 39.058 36.024C39.039 31.835 35.441 30.388 32.09 29.512Z" fill="white"/>
</g>
</g>
</svg>
