<svg width="21" height="21" viewBox="0 0 21 21" fill="none" xmlns="http://www.w3.org/2000/svg">
<g id="linked_camera_black_24dp">
<path id="Path 40" d="M16.75 7.53805V16.751H3.34999V6.70005H6.74199L8.27499 5.02505H12.563V3.35005H7.53799L6.00499 5.02505H3.34999C2.90616 5.02637 2.48088 5.20326 2.16704 5.5171C1.8532 5.83094 1.67631 6.25622 1.67499 6.70005V16.75C1.67631 17.1939 1.8532 17.6192 2.16704 17.933C2.48088 18.2468 2.90616 18.4237 3.34999 18.425H16.75C17.1938 18.4237 17.6191 18.2468 17.9329 17.933C18.2468 17.6192 18.4237 17.1939 18.425 16.75V7.53805H16.75ZM17.311 6.69205H18.425C18.4223 5.36089 17.8918 4.08512 16.9498 3.14459C16.0078 2.20407 14.7312 1.67558 13.4 1.67505V2.78905C14.4361 2.78825 15.4301 3.19895 16.1635 3.93085C16.8969 4.66274 17.3097 5.65593 17.311 6.69205ZM15.075 6.69205H16.189C16.1877 5.9535 15.8931 5.2457 15.3702 4.72422C14.8472 4.20274 14.1385 3.91025 13.4 3.91105V5.02505C13.843 5.02452 14.2681 5.19972 14.5822 5.51223C14.8962 5.82474 15.0734 6.24904 15.075 6.69205ZM5.86299 11.725C5.86299 12.5534 6.10861 13.3631 6.56879 14.0518C7.02898 14.7405 7.68305 15.2773 8.44831 15.5943C9.21357 15.9112 10.0556 15.9942 10.868 15.8326C11.6804 15.671 12.4266 15.2721 13.0124 14.6864C13.5981 14.1007 13.9969 13.3545 14.1585 12.5421C14.3201 11.7297 14.2372 10.8876 13.9202 10.1224C13.6032 9.35711 13.0664 8.70304 12.3777 8.24285C11.689 7.78267 10.8793 7.53705 10.051 7.53705C8.94034 7.53731 7.87526 7.97863 7.08992 8.76398C6.30457 9.54932 5.86325 10.6144 5.86299 11.725ZM12.563 11.725C12.563 12.2221 12.4156 12.7079 12.1395 13.1212C11.8633 13.5345 11.4709 13.8566 11.0117 14.0468C10.5525 14.237 10.0472 14.2867 9.55973 14.1898C9.07225 14.0928 8.62448 13.8535 8.27303 13.502C7.92158 13.1506 7.68224 12.7028 7.58527 12.2153C7.48831 11.7278 7.53807 11.2226 7.72828 10.7634C7.91848 10.3042 8.24058 9.9117 8.65384 9.63557C9.0671 9.35943 9.55296 9.21205 10.05 9.21205C10.7159 9.2139 11.354 9.47925 11.8249 9.95013C12.2958 10.421 12.5611 11.0591 12.563 11.725Z" fill="white"/>
</g>
</svg>
