<svg width="35" height="35" viewBox="0 0 35 35" fill="none" xmlns="http://www.w3.org/2000/svg">
<g id="lock_reset_black_24dp">
<path id="Path 45" d="M19.031 4.39209C17.3006 4.39183 15.5871 4.73241 13.9884 5.39438C12.3896 6.05636 10.9369 7.02677 9.71323 8.25019C8.48952 9.47362 7.51879 10.9261 6.85645 12.5247C6.19411 14.1233 5.85314 15.8367 5.85301 17.5671C5.85301 17.6551 5.86801 17.7431 5.86801 17.8451L3.17701 15.1521L1.11301 17.2161L7.32001 23.4231L13.527 17.2161L11.463 15.1521L8.79801 17.8161C8.79801 17.7281 8.78301 17.6551 8.78301 17.5671C8.77875 15.1961 9.5951 12.8967 11.0935 11.0591C12.5919 9.22157 14.6799 7.95914 17.0033 7.48611C19.3266 7.01308 21.7421 7.3586 23.8396 8.46402C25.9372 9.56944 27.5876 11.3666 28.5107 13.5506C29.4338 15.7345 29.5728 18.1706 28.904 20.4453C28.2352 22.72 26.7998 24.6933 24.8416 26.03C22.8833 27.3668 20.5228 27.9847 18.1608 27.7789C15.7987 27.5731 13.5806 26.5563 11.883 24.9011L9.80801 26.9651C11.3504 28.4788 13.2415 29.5897 15.3146 30.2C17.3877 30.8102 19.5791 30.9011 21.6956 30.4644C23.8121 30.0278 25.7886 29.0771 27.4509 27.6962C29.1133 26.3153 30.4103 24.5467 31.2277 22.5462C32.0451 20.5456 32.3577 18.3748 32.138 16.2249C31.9182 14.075 31.1729 12.0123 29.9678 10.2185C28.7626 8.42464 27.1346 6.9549 25.2273 5.93883C23.3201 4.92276 21.1921 4.39157 19.031 4.39209ZM21.959 16.1031V14.6391C21.959 13.8625 21.6505 13.1178 21.1014 12.5687C20.5523 12.0196 19.8076 11.7111 19.031 11.7111C18.2545 11.7111 17.5097 12.0196 16.9606 12.5687C16.4115 13.1178 16.103 13.8625 16.103 14.6391V16.1031C15.7151 16.1041 15.3433 16.2587 15.069 16.5331C14.7946 16.8074 14.6401 17.1791 14.639 17.5671V21.9591C14.6401 22.347 14.7946 22.7188 15.069 22.9931C15.3433 23.2675 15.7151 23.422 16.103 23.4231H21.959C22.347 23.422 22.7187 23.2675 22.993 22.9931C23.2674 22.7188 23.422 22.347 23.423 21.9591V17.5671C23.422 17.1791 23.2674 16.8074 22.993 16.5331C22.7187 16.2587 22.347 16.1041 21.959 16.1031ZM20.495 16.1031H17.567V14.6391C17.567 14.2508 17.7212 13.8784 17.9958 13.6039C18.2704 13.3293 18.6427 13.1751 19.031 13.1751C19.4193 13.1751 19.7917 13.3293 20.0662 13.6039C20.3408 13.8784 20.495 14.2508 20.495 14.6391V16.1031Z" fill="#2196F3"/>
</g>
</svg>
