<svg width="38" height="38" viewBox="0 0 38 38" fill="none" xmlns="http://www.w3.org/2000/svg">
<g id="receipt_long_black_24dp">
<g id="Group 47">
<path id="Path 467" d="M30.875 5.54199L28.5 3.16699L26.125 5.54199L23.75 3.16699L21.375 5.54199L19 3.16699L16.625 5.54199L14.25 3.16699L11.875 5.54199L9.5 3.16699V25.334H4.75V30.084C4.74921 30.708 4.87154 31.326 5.10997 31.9027C5.3484 32.4793 5.69825 33.0033 6.13949 33.4445C6.58072 33.8857 7.10467 34.2356 7.68132 34.474C8.25798 34.7125 8.876 34.8348 9.5 34.834H28.5C29.124 34.8348 29.742 34.7125 30.3187 34.474C30.8953 34.2356 31.4193 33.8857 31.8605 33.4445C32.3018 33.0033 32.6516 32.4793 32.89 31.9027C33.1285 31.326 33.2508 30.708 33.25 30.084V3.16699L30.875 5.54199ZM23.75 31.667H9.5C9.08057 31.6657 8.6787 31.4985 8.38211 31.2019C8.08553 30.9053 7.91832 30.5034 7.917 30.084V28.5H23.75V31.667ZM30.083 30.084C30.083 30.504 29.9162 30.9067 29.6192 31.2037C29.3222 31.5007 28.9195 31.6675 28.4995 31.6675C28.0795 31.6675 27.6768 31.5007 27.3798 31.2037C27.0828 30.9067 26.916 30.504 26.916 30.084V25.334H12.667V7.91699H30.083V30.084Z" fill="white"/>
<path id="Rectangle 619" d="M24 11H14V14H24V11Z" fill="white"/>
<path id="Rectangle 620" d="M28 11H25V14H28V11Z" fill="white"/>
<path id="Rectangle 621" d="M24 16H14V18H24V16Z" fill="white"/>
<path id="Rectangle 622" d="M28 16H25V18H28V16Z" fill="white"/>
</g>
</g>
</svg>
