<svg width="63" height="63" viewBox="0 0 63 63" fill="none" xmlns="http://www.w3.org/2000/svg">
<g id="Path 465">
<path id="Vector" d="M53 62.5H10C4.76168 62.5 0.5 58.2383 0.5 53V10C0.5 4.76168 4.76168 0.5 10 0.5H53C58.2383 0.5 62.5 4.76168 62.5 10V53C62.5 58.2383 58.2383 62.5 53 62.5Z" fill="#20A943"/>
<path id="Vector_2" d="M10 1C5.03738 1 1 5.03738 1 10V53C1 57.9626 5.03738 62 10 62H53C57.9626 62 62 57.9626 62 53V10C62 5.03738 57.9626 1 53 1H10ZM10 0H53C58.5228 0 63 4.47715 63 10V53C63 58.5228 58.5228 63 53 63H10C4.47715 63 0 58.5228 0 53V10C0 4.47715 4.47715 0 10 0Z" fill="#707070"/>
</g>
</svg>
