<svg width="24" height="24" viewBox="0 0 24 24" fill="none" xmlns="http://www.w3.org/2000/svg">
<g id="settings_white_24dp">
<path id="Path 7" d="M19.43 12.98C19.4739 12.6551 19.4973 12.3278 19.5 12C19.4973 11.6722 19.4739 11.3449 19.43 11.02L21.54 9.37C21.6332 9.29524 21.6965 9.1896 21.7185 9.07221C21.7405 8.95482 21.7197 8.83343 21.66 8.73L19.66 5.27C19.6155 5.19296 19.5513 5.12917 19.474 5.08522C19.3966 5.04128 19.309 5.01876 19.22 5.02C19.162 5.01935 19.1043 5.02952 19.05 5.05L16.56 6.05C16.0431 5.64915 15.4747 5.31954 14.87 5.07L14.49 2.42C14.4735 2.30234 14.4146 2.19476 14.3244 2.11744C14.2341 2.04011 14.1188 1.99836 14 2H10C9.88121 1.99836 9.76589 2.04011 9.67567 2.11744C9.58546 2.19476 9.52656 2.30234 9.51002 2.42L9.13001 5.07C8.52728 5.32342 7.95935 5.65275 7.44001 6.05L4.95001 5.05C4.89203 5.03033 4.83124 5.0202 4.77001 5.02C4.68276 5.02053 4.59716 5.04388 4.52172 5.08774C4.44629 5.1316 4.38364 5.19443 4.34001 5.27L2.34001 8.73C2.27881 8.83304 2.25723 8.95484 2.27932 9.07263C2.30141 9.19042 2.36564 9.29613 2.46001 9.37L4.57001 11.02C4.52645 11.3449 4.50307 11.6722 4.50001 12C4.50307 12.3278 4.52645 12.6551 4.57001 12.98L2.46001 14.63C2.36687 14.7048 2.30356 14.8104 2.28155 14.9278C2.25954 15.0452 2.28028 15.1666 2.34001 15.27L4.34001 18.73C4.38449 18.807 4.44871 18.8708 4.52605 18.9148C4.6034 18.9587 4.69107 18.9812 4.78001 18.98C4.83805 18.9807 4.8957 18.9705 4.95001 18.95L7.44001 17.95C7.95694 18.3509 8.52535 18.6805 9.13001 18.93L9.51002 21.58C9.52656 21.6977 9.58546 21.8052 9.67567 21.8826C9.76589 21.9599 9.88121 22.0016 10 22H14C14.1188 22.0016 14.2341 21.9599 14.3244 21.8826C14.4146 21.8052 14.4735 21.6977 14.49 21.58L14.87 18.93C15.4728 18.6766 16.0407 18.3472 16.56 17.95L19.05 18.95C19.108 18.9697 19.1688 18.9798 19.23 18.98C19.3173 18.9795 19.4029 18.9561 19.4783 18.9123C19.5537 18.8684 19.6164 18.8056 19.66 18.73L21.66 15.27C21.7197 15.1666 21.7405 15.0452 21.7185 14.9278C21.6965 14.8104 21.6332 14.7048 21.54 14.63L19.43 12.98ZM17.45 11.27C17.4833 11.5119 17.5 11.7558 17.5 12C17.5 12.21 17.48 12.43 17.45 12.73L17.31 13.86L18.2 14.56L19.28 15.4L18.58 16.61L17.31 16.1L16.27 15.68L15.37 16.36C14.9851 16.6541 14.5653 16.8993 14.12 17.09L13.06 17.52L12.9 18.65L12.7 20H11.3L11.11 18.65L10.95 17.52L9.89002 17.09C9.4519 16.9058 9.03866 16.6672 8.66001 16.38L7.75001 15.68L6.69001 16.11L5.42001 16.62L4.72001 15.41L5.80001 14.57L6.69001 13.87L6.55001 12.74C6.52001 12.43 6.50001 12.2 6.50001 12C6.50001 11.8 6.52001 11.57 6.55001 11.27L6.69001 10.14L5.80001 9.44L4.72001 8.6L5.42001 7.39L6.69001 7.9L7.73001 8.32L8.63001 7.64C9.01489 7.34592 9.43477 7.10071 9.88001 6.91L10.94 6.48L11.1 5.35L11.3 4H12.69L12.88 5.35L13.04 6.48L14.1 6.91C14.5381 7.09422 14.9514 7.33275 15.33 7.62L16.24 8.32L17.3 7.89L18.57 7.38L19.27 8.59L18.2 9.44L17.31 10.14L17.45 11.27ZM12 8C11.2089 8 10.4355 8.2346 9.77773 8.67412C9.11994 9.11365 8.60725 9.73836 8.3045 10.4693C8.00175 11.2002 7.92253 12.0044 8.07687 12.7804C8.23121 13.5563 8.61218 14.269 9.17159 14.8284C9.731 15.3878 10.4437 15.7688 11.2197 15.9231C11.9956 16.0775 12.7998 15.9983 13.5307 15.6955C14.2617 15.3928 14.8864 14.8801 15.3259 14.2223C15.7654 13.5645 16 12.7911 16 12C16 10.9391 15.5786 9.92172 14.8284 9.17157C14.0783 8.42143 13.0609 8 12 8ZM12 14C11.6045 14 11.2178 13.8827 10.8889 13.6629C10.56 13.4432 10.3036 13.1308 10.1523 12.7654C10.0009 12.3999 9.96127 11.9978 10.0384 11.6098C10.1156 11.2219 10.3061 10.8655 10.5858 10.5858C10.8655 10.3061 11.2219 10.1156 11.6098 10.0384C11.9978 9.96126 12.3999 10.0009 12.7654 10.1522C13.1308 10.3036 13.4432 10.56 13.663 10.8889C13.8827 11.2178 14 11.6044 14 12C13.9984 12.5299 13.7872 13.0377 13.4125 13.4125C13.0377 13.7872 12.53 13.9984 12 14Z" fill="white"/>
</g>
</svg>
