<svg width="63" height="63" viewBox="0 0 63 63" fill="none" xmlns="http://www.w3.org/2000/svg">
<g id="Tao Taas">
<g id="Rectangle 26">
<path id="Vector" d="M53 0H10C4.47715 0 0 4.47715 0 10V53C0 58.5228 4.47715 63 10 63H53C58.5228 63 63 58.5228 63 53V10C63 4.47715 58.5228 0 53 0Z" fill="#40D6FC"/>
<path id="Vector_2" d="M53 0.5H10C4.75329 0.5 0.5 4.75329 0.5 10V53C0.5 58.2467 4.75329 62.5 10 62.5H53C58.2467 62.5 62.5 58.2467 62.5 53V10C62.5 4.75329 58.2467 0.5 53 0.5Z" stroke="#707070"/>
</g>
<g id="supervised_user_circle_black_24dp">
<path id="Path 464" d="M32.548 27.104C32.548 25.9386 32.2025 24.7995 31.555 23.8306C30.9076 22.8616 29.9874 22.1064 28.9108 21.6605C27.8342 21.2145 26.6495 21.0978 25.5066 21.3252C24.3636 21.5525 23.3138 22.1137 22.4898 22.9377C21.6657 23.7617 21.1046 24.8116 20.8772 25.9545C20.6499 27.0974 20.7666 28.2821 21.2125 29.3587C21.6585 30.4354 22.4137 31.3556 23.3826 32.003C24.3515 32.6504 25.4907 32.996 26.656 32.996C28.2173 32.9915 29.7134 32.3693 30.8173 31.2653C31.9213 30.1613 32.5435 28.6652 32.548 27.104ZM26.656 29.068C26.2675 29.0684 25.8876 28.9535 25.5643 28.7379C25.2411 28.5224 24.9891 28.2158 24.8401 27.8569C24.6911 27.4981 24.652 27.1032 24.7275 26.722C24.8031 26.3409 24.99 25.9908 25.2646 25.7159C25.5392 25.4411 25.8891 25.2538 26.2701 25.1779C26.6512 25.1019 27.0462 25.1407 27.4052 25.2893C27.7641 25.4379 28.071 25.6896 28.2869 26.0126C28.5028 26.3356 28.618 26.7154 28.618 27.104C28.6167 27.624 28.4098 28.1225 28.0425 28.4906C27.6751 28.8587 27.1771 29.0666 26.657 29.069L26.656 29.068ZM39.418 32.997C40.1949 32.997 40.9544 32.7666 41.6003 32.335C42.2463 31.9034 42.7497 31.2899 43.047 30.5722C43.3443 29.8544 43.4221 29.0646 43.2706 28.3027C43.119 27.5407 42.7449 26.8408 42.1955 26.2915C41.6462 25.7421 40.9463 25.368 40.1843 25.2164C39.4224 25.0649 38.6326 25.1427 37.9148 25.44C37.1971 25.7373 36.5836 26.2407 36.152 26.8867C35.7204 27.5326 35.49 28.2921 35.49 29.069C35.4882 29.5853 35.5885 30.0969 35.7853 30.5743C35.982 31.0517 36.2713 31.4855 36.6364 31.8506C37.0015 32.2157 37.4353 32.505 37.9127 32.7017C38.3901 32.8985 38.9017 32.9988 39.418 32.997ZM31.547 11.414C27.6628 11.414 23.8658 12.5658 20.6362 14.7237C17.4066 16.8817 14.8894 19.9489 13.403 23.5375C11.9165 27.126 11.5276 31.0748 12.2854 34.8843C13.0432 38.6939 14.9136 42.1933 17.6602 44.9398C20.4067 47.6864 23.9061 49.5568 27.7156 50.3146C31.5252 51.0724 35.474 50.6835 39.0625 49.197C42.6511 47.7106 45.7183 45.1934 47.8763 41.9638C50.0342 38.7342 51.186 34.9372 51.186 31.053C51.1842 25.845 49.1145 20.8508 45.4319 17.1681C41.7492 13.4855 36.755 11.4158 31.547 11.414ZM19.469 41.088C21.6077 39.6899 24.102 38.9334 26.657 38.908C26.794 38.908 26.952 38.928 27.109 38.928C27.6575 37.5246 28.5327 36.2723 29.662 35.275C28.6727 35.0855 27.6691 34.9804 26.662 34.961C23.3616 35.0046 20.1404 35.9778 17.368 37.769C16.3566 35.6677 15.8329 33.365 15.836 31.033C15.8325 28.6799 16.3575 26.356 17.3724 24.233C18.3873 22.11 19.8661 20.2421 21.6996 18.7672C23.5332 17.2923 25.6746 16.2481 27.9657 15.7117C30.2569 15.1753 32.6393 15.1605 34.937 15.6682C37.2347 16.1759 39.389 17.1933 41.2408 18.6452C43.0926 20.0971 44.5946 21.9464 45.6359 24.0565C46.6772 26.1667 47.2313 28.4838 47.2571 30.8368C47.2829 33.1898 46.7798 35.5185 45.785 37.651C43.8314 36.5766 41.647 35.9907 39.418 35.943C36.433 35.943 30.581 37.534 30.581 41.243V46.704C28.4423 46.5819 26.3517 46.0202 24.4398 45.054C22.5279 44.0877 20.8357 42.7376 19.469 41.088Z" fill="white"/>
</g>
</g>
</svg>
