<svg width="73" height="73" viewBox="0 0 73 73" fill="none" xmlns="http://www.w3.org/2000/svg">
<g id="task_alt_black_24dp">
<path id="Path 63" d="M66.5132 16.102L32.0172 50.628L19.1982 37.809L23.4612 33.546L32.0172 42.102L62.2472 11.869L66.5132 16.102ZM59.8322 31.34C60.9459 36.2268 60.513 41.3389 58.5933 45.9688C56.6736 50.5987 53.3621 54.5173 49.1172 57.1822C44.8723 59.8471 39.9039 61.1266 34.8999 60.8434C29.8958 60.5602 25.1035 58.7284 21.1863 55.6016C17.2692 52.4748 14.4209 48.2076 13.0358 43.3908C11.6507 38.5739 11.7972 33.4455 13.4552 28.7156C15.1131 23.9856 18.2004 19.8881 22.2897 16.9901C26.379 14.0921 31.2681 12.5369 36.2802 12.54C40.8664 12.5346 45.3577 13.8462 49.2202 16.319L53.5742 11.965C48.5149 8.39424 42.4726 6.48066 36.2802 6.488C29.8319 6.47098 23.5461 8.51072 18.3365 12.3108C13.1268 16.1108 9.26471 21.4732 7.3114 27.6186C5.35809 33.764 5.41538 40.3721 7.47494 46.4827C9.5345 52.5933 13.489 57.8879 18.7638 61.597C24.0385 65.3062 30.3587 67.2367 36.8057 67.1078C43.2528 66.979 49.4908 64.7977 54.6132 60.8808C59.7356 56.9639 63.4754 51.5156 65.2893 45.3276C67.1031 39.1396 66.8964 32.5344 64.6992 26.472L59.8322 31.34Z" fill="#22B169"/>
</g>
</svg>
