<svg width="24" height="24" viewBox="0 0 24 24" fill="none" xmlns="http://www.w3.org/2000/svg">
<g id="receipt_long_white_24dp">
<g id="Group 3">
<path id="Path 5" d="M19.5 3.5L18 2L16.5 3.5L15 2L13.5 3.5L12 2L10.5 3.5L9 2L7.5 3.5L6 2V16H3V19C3 19.7956 3.31607 20.5587 3.87868 21.1213C4.44129 21.6839 5.20435 22 6 22H18C18.7956 22 19.5587 21.6839 20.1213 21.1213C20.6839 20.5587 21 19.7956 21 19V2L19.5 3.5ZM15 20H6C5.73478 20 5.48043 19.8946 5.29289 19.7071C5.10536 19.5196 5 19.2652 5 19V18H15V20ZM19 19C19 19.2652 18.8946 19.5196 18.7071 19.7071C18.5196 19.8946 18.2652 20 18 20C17.7348 20 17.4804 19.8946 17.2929 19.7071C17.1054 19.5196 17 19.2652 17 19V16H8V5H19V19Z" fill="white"/>
<path id="Rectangle 9" d="M15 7H9V9H15V7Z" fill="white"/>
<path id="Rectangle 10" d="M18 7H16V9H18V7Z" fill="white"/>
<path id="Rectangle 11" d="M15 10H9V12H15V10Z" fill="white"/>
<path id="Rectangle 12" d="M18 10H16V12H18V10Z" fill="white"/>
</g>
</g>
</svg>
